<svg xmlns="http://www.w3.org/2000/svg" width="1600" height="1200" viewBox="0 0 1600 1200" fill="none">
  <defs>
    <linearGradient id="bg" x1="0" y1="0" x2="1600" y2="1200" gradientUnits="userSpaceOnUse">
      <stop stop-color="#0B1220"/>
      <stop offset="1" stop-color="#020617"/>
    </linearGradient>
    <linearGradient id="accent" x1="0" y1="0" x2="1" y2="1">
      <stop stop-color="#22C55E"/>
      <stop offset="1" stop-color="#16A34A"/>
    </linearGradient>
    <filter id="soft" x="-50%" y="-50%" width="200%" height="200%">
      <feGaussianBlur stdDeviation="30" result="blur"/>
    </filter>
  </defs>

  <rect width="1600" height="1200" fill="url(#bg)"/>

  <g opacity="0.35" filter="url(#soft)">
    <circle cx="1180" cy="380" r="220" fill="#22C55E"/>
  </g>
  <g opacity="0.20" filter="url(#soft)">
    <circle cx="420" cy="860" r="260" fill="#60A5FA"/>
  </g>

  <g opacity="0.30">
    <path d="M140 270H1460" stroke="white" stroke-opacity="0.10" stroke-width="2"/>
    <path d="M140 930H1460" stroke="white" stroke-opacity="0.10" stroke-width="2"/>
    <path d="M320 190V1010" stroke="white" stroke-opacity="0.06" stroke-width="2"/>
    <path d="M800 190V1010" stroke="white" stroke-opacity="0.06" stroke-width="2"/>
    <path d="M1280 190V1010" stroke="white" stroke-opacity="0.06" stroke-width="2"/>
  </g>

  <g transform="translate(1050 360) rotate(-16)">
    <path d="M140 54C140 24.176 115.824 0 86 0C56.176 0 32 24.176 32 54C32 83.824 56.176 108 86 108C115.824 108 140 83.824 140 54Z" fill="white" fill-opacity="0.06" stroke="white" stroke-opacity="0.20"/>
    <path d="M86 118C66 118 48 126 36 140L86 460L136 140C124 126 106 118 86 118Z" fill="white" fill-opacity="0.04" stroke="white" stroke-opacity="0.18"/>
    <path d="M86 162L62 450" stroke="white" stroke-opacity="0.18" stroke-width="2"/>
    <path d="M86 162L110 450" stroke="white" stroke-opacity="0.18" stroke-width="2"/>
    <path d="M40 154L86 460L132 154" stroke="white" stroke-opacity="0.18" stroke-width="2"/>
    <path d="M64 478H108" stroke="white" stroke-opacity="0.18" stroke-width="6" stroke-linecap="round"/>
    <path d="M40 520C120 508 168 544 220 608" stroke="url(#accent)" stroke-width="10" stroke-linecap="round" opacity="0.9"/>
    <path d="M46 548C122 538 160 566 206 624" stroke="white" stroke-opacity="0.10" stroke-width="6" stroke-linecap="round"/>
  </g>

  <g transform="translate(140 980)">
    <path d="M0 0H380" stroke="white" stroke-opacity="0.10" stroke-width="2"/>
    <path d="M0 -64H260" stroke="white" stroke-opacity="0.06" stroke-width="2"/>
  </g>
</svg>

